PathFileType	4	(x/y/z)	Passive_Pref0006.trc
DataRate	CameraRate	NumFrames	NumMarkers	Units	OrigDataRate	OrigDataStartFrame	OrigNumFrames
240	240	7	50	mm	240	113	300
Frame#	Time	R_AC			L_AC			HEAD			STERN			C7			L_IC			R_IC			L_ASIS			R_ASIS			L_GT			R_GT			R_PSIS			L_PSIS			SACRAL			L_LAT_KNEE			L_MED_KNEE			R_LAT_KNEE			R_MED_KNEE			L_LAT_ANK			L_MED_ANK			R_LAT_ANK			R_MED_ANK			L_THIGH_PROX_POST			L_THIGH_PROX_ANT			L_THIGH_DIST_ANT			L_THIGH_DIST_POST			R_THIGH_PROX_POST			R_THIGH_PROX_ANT			R_THIGH_DIST_ANT			R_THIGH_DIST_POST			L_SHANK_PROX_POST			L_SHANK_PROX_ANT			L_SHANK_DIST_ANT			L_SHANK_DIST_POST			R_SHANK_PROX_POST			R_SHANK_PROX_ANT			R_SHANK_DIST_ANT			R_SHANK_DIST_POST			L_HEEL_LAT			L_HEEL_SUP			L_HEEL_MED			R_HEEL_LAT			R_HEEL_SUP			R_HEEL_MED			L_1ST_MET			L_5TH_MET			L_TOE			R_1ST_MET			R_5TH_MET			R_TOE			
		X1	Y1	Z1	X2	Y2	Z2	X3	Y3	Z3	X4	Y4	Z4	X5	Y5	Z5	X6	Y6	Z6	X7	Y7	Z7	X8	Y8	Z8	X9	Y9	Z9	X10	Y10	Z10	X11	Y11	Z11	X12	Y12	Z12	X13	Y13	Z13	X14	Y14	Z14	X15	Y15	Z15	X16	Y16	Z16	X17	Y17	Z17	X18	Y18	Z18	X19	Y19	Z19	X20	Y20	Z20	X21	Y21	Z21	X22	Y22	Z22	X23	Y23	Z23	X24	Y24	Z24	X25	Y25	Z25	X26	Y26	Z26	X27	Y27	Z27	X28	Y28	Z28	X29	Y29	Z29	X30	Y30	Z30	X31	Y31	Z31	X32	Y32	Z32	X33	Y33	Z33	X34	Y34	Z34	X35	Y35	Z35	X36	Y36	Z36	X37	Y37	Z37	X38	Y38	Z38	X39	Y39	Z39	X40	Y40	Z40	X41	Y41	Z41	X42	Y42	Z42	X43	Y43	Z43	X44	Y44	Z44	X45	Y45	Z45	X46	Y46	Z46	X47	Y47	Z47	X48	Y48	Z48	X49	Y49	Z49	X50	Y50	Z50	

113	0.46823	-174.74	1530.9	484.96	-191.17	1546.2	81.071	-115.38	1849.7	290.66	-98.015	1483.1	288.89	-249.98	1580.6	289.46	-236.29	1104.8	132.13	-202.85	1132.4	469.47	-164.03	1030.6	156.82	-135.23	1045	425.56	-278.87	955.53	121.69	-223.53	962.25	486.8	-362.13	1036.6	359.92	-371.02	1044.4	275.97	-376.59	1007.1	315.08	-298.31	553.63	164.54	-272.1	568.06	300.37	-49.688	576.99	467.38	-40.21	574.23	330.09	-411.25	125.47	211.38	-424.8	125.59	292.42	-41.36	109.35	428.51	-2.0509	145.2	335.3	-261.07	788.3	132.72	-197.18	777.52	156.69	-207.04	706.14	165.63	-268.37	713.06	145.76	-204.24	803.24	471.1	-152.11	830.82	492.83	-127.22	759.86	488.57	-172.92	737.53	465.16	-303.23	499.23	179.67	-247.03	519.01	191.72	-254.87	453.87	208.12	-308.7	437.71	186.84	-89.282	413.07	469.32	-31.53	418.1	471.08	-26.725	343.15	461.94	-82.213	335.83	457.49	-476.57	60.248	211.23	-494.11	88.538	242.23	-492.26	60.495	279.33	-99.763	49.837	379.79	-97.844	78.954	345.65	-64.153	60.524	323.96	-280.92	38.72	333.79	-278.49	38.948	215.94	-217.41	58.955	299.05	138.7	103.57	371.26	84.646	76.726	475.56	172.22	123.56	435.9
114	0.47241	-169	1530.4	484.97	-185.87	1545.8	81.161	-109.94	1849.3	290.87	-92.617	1482.5	288.8	-244.38	1580.2	289.59	-231.74	1104.5	132.26	-197.18	1132	469.5	-159.52	1030.1	156.71	-129.7	1044.4	425.33	-274.69	955.33	121.93	-218.05	961.82	486.86	-357.03	1036.6	360.43	-366.01	1044.4	276.57	-371.63	1007.1	315.71	-295.83	553.58	164.72	-269.56	567.84	300.57	-45.378	575.97	466.73	-36.305	573.25	329.41	-410.88	125.87	211.43	-424.53	125.91	292.49	-25.749	108.55	427.91	12.516	145.49	334.76	-257.6	788.21	132.95	-193.74	777.09	156.79	-203.89	705.74	165.73	-265.21	712.96	145.97	-199.58	802.66	470.88	-147.33	829.96	492.68	-122.73	758.92	488.19	-168.53	736.84	464.73	-301.03	499.19	179.83	-244.73	518.7	191.89	-252.91	453.6	208.28	-306.8	437.71	187.02	-81.36	411.1	468.66	-23.74	417.59	470.48	-17.079	342.79	461.35	-72.388	334.06	456.82	-476.44	60.675	211.29	-493.91	88.984	242.29	-492.13	60.93	279.38	-82.632	47.494	379.26	-81.461	76.634	345.1	-47.394	59.179	323.35	-280.85	38.551	333.74	-278.43	38.961	215.97	-217.24	58.717	299.1	154.32	107.61	370.73	101.01	79.356	475	187.34	128.45	435.42
115	0.47659	-163.24	1529.9	484.99	-180.57	1545.4	81.258	-104.49	1848.8	291.09	-87.204	1482	288.71	-238.76	1579.8	289.72	-227.18	1104.1	132.4	-191.48	1131.6	469.52	-154.99	1029.6	156.6	-124.12	1043.8	425.1	-270.48	955.12	122.17	-212.52	961.35	486.91	-351.85	1036.5	360.95	-360.96	1044.4	277.18	-366.64	1007.1	316.35	-293.34	553.53	164.91	-267	567.6	300.77	-41.123	574.89	466.1	-32.486	572.21	328.73	-410.5	126.29	211.49	-424.26	126.23	292.57	-10.309	107.96	427.24	26.879	145.97	334.14	-254.09	788.12	133.19	-190.27	776.65	156.89	-200.73	705.33	165.85	-262.01	712.86	146.18	-194.91	802.06	470.69	-142.53	829.06	492.54	-118.24	757.93	487.84	-164.14	736.11	464.32	-298.82	499.15	179.99	-242.39	518.39	192.06	-250.92	453.32	208.44	-304.89	437.7	187.19	-73.494	409.18	468.01	-16.038	417.11	469.87	-7.5489	342.49	460.73	-62.646	332.37	456.15	-476.31	61.113	211.34	-493.7	89.438	242.36	-492	61.373	279.44	-65.661	45.422	378.65	-65.241	74.581	344.47	-30.835	58.115	322.66	-280.79	38.379	333.67	-278.37	38.974	215.99	-217.08	58.483	299.15	169.63	111.83	370.07	117.14	82.158	474.31	202.15	133.49	434.8
116	0.48077	-157.45	1529.4	485.02	-175.26	1545	81.363	-99.043	1848.3	291.32	-81.776	1481.4	288.62	-233.12	1579.4	289.87	-222.59	1103.8	132.54	-185.75	1131.1	469.54	-150.42	1029.1	156.49	-118.51	1043.2	424.85	-266.23	954.88	122.41	-206.94	960.85	486.95	-346.59	1036.4	361.47	-355.87	1044.4	277.78	-361.6	1007.1	316.98	-290.84	553.46	165.1	-264.42	567.36	300.98	-36.911	573.77	465.48	-28.742	571.1	328.07	-410.11	126.7	211.55	-423.98	126.57	292.65	4.9352	107.57	426.49	41.021	146.65	333.45	-250.56	788.01	133.42	-186.78	776.21	156.98	-197.55	704.9	165.97	-258.79	712.75	146.38	-190.21	801.44	470.53	-137.69	828.12	492.43	-113.74	756.89	487.51	-159.76	735.36	463.95	-296.59	499.11	180.15	-240.01	518.08	192.21	-248.92	453.04	208.61	-302.96	437.69	187.37	-65.688	407.31	467.35	-8.4242	416.64	469.26	1.8609	342.26	460.09	-52.996	330.78	455.47	-476.18	61.561	211.4	-493.48	89.9	242.44	-491.87	61.825	279.5	-48.877	43.618	377.95	-49.209	72.792	343.77	-14.498	57.325	321.88	-280.74	38.204	333.6	-278.31	38.987	216.02	-216.92	58.252	299.2	184.62	116.21	369.29	133	85.115	473.51	216.65	138.63	434.06
117	0.48495	-151.65	1528.9	485.06	-169.94	1544.6	81.476	-93.585	1847.8	291.56	-76.331	1480.8	288.55	-227.46	1578.9	290.03	-217.99	1103.5	132.68	-179.99	1130.6	469.55	-145.82	1028.6	156.39	-112.85	1042.5	424.6	-261.95	954.63	122.65	-201.32	960.3	486.99	-341.23	1036.2	361.99	-350.74	1044.3	278.38	-356.53	1007	317.61	-288.31	553.39	165.3	-261.82	567.11	301.19	-32.729	572.6	464.88	-25.058	569.94	327.41	-409.72	127.13	211.61	-423.7	126.91	292.73	19.959	107.37	425.67	54.924	147.51	332.68	-246.99	787.89	133.66	-183.26	775.75	157.07	-194.34	704.47	166.1	-255.54	712.63	146.59	-185.48	800.78	470.4	-132.81	827.15	492.33	-109.21	755.81	487.2	-155.36	734.57	463.61	-294.34	499.05	180.31	-237.61	517.76	192.35	-246.9	452.75	208.77	-301.01	437.67	187.55	-57.945	405.49	466.7	-0.90009	416.2	468.64	11.144	342.08	459.43	-43.447	329.27	454.78	-476.05	62.02	211.46	-493.26	90.372	242.51	-491.73	62.289	279.57	-32.312	42.073	377.17	-33.393	71.257	342.97	1.5912	56.797	321	-280.7	38.029	333.52	-278.25	39.001	216.05	-216.75	58.023	299.26	199.27	120.74	368.39	148.59	88.209	472.58	230.82	143.87	433.2
118	0.48913	-145.82	1528.3	485.1	-164.61	1544.1	81.599	-88.123	1847.3	291.82	-70.867	1480.2	288.48	-221.78	1578.4	290.2	-213.37	1103.1	132.83	-174.2	1130.1	469.57	-141.19	1028	156.28	-107.16	1041.9	424.34	-257.62	954.36	122.88	-195.64	959.73	487.02	-335.78	1036	362.51	-345.58	1044.2	278.98	-351.42	1006.9	318.24	-285.76	553.3	165.49	-259.19	566.85	301.39	-28.563	571.39	464.3	-21.419	568.73	326.77	-409.32	127.57	211.68	-423.4	127.27	292.82	34.739	107.34	424.76	68.57	148.53	331.84	-243.38	787.76	133.88	-179.71	775.28	157.16	-191.12	704.03	166.24	-252.26	712.5	146.79	-180.71	800.11	470.3	-127.88	826.15	492.25	-104.65	754.7	486.92	-150.94	733.75	463.3	-292.06	498.99	180.47	-235.16	517.44	192.49	-244.86	452.44	208.93	-299.05	437.65	187.73	-50.268	403.73	466.05	6.5345	415.78	468.02	20.296	341.96	458.74	-34.005	327.86	454.07	-475.91	62.493	211.53	-493.04	90.855	242.59	-491.58	62.765	279.63	-15.994	40.777	376.28	-17.816	69.968	342.09	17.407	56.519	320.02	-280.66	37.858	333.44	-278.19	39.015	216.08	-216.59	57.796	299.31	213.56	125.38	367.38	163.87	91.419	471.55	244.65	149.17	432.23
119	0.49331	-139.98	1527.7	485.16	-159.26	1543.7	81.732	-82.657	1846.7	292.09	-65.382	1479.6	288.42	-216.09	1577.9	290.38	-208.72	1102.7	132.98	-168.38	1129.5	469.58	-136.52	1027.5	156.17	-101.44	1041.2	424.07	-253.26	954.07	123.1	-189.91	959.12	487.05	-330.22	1035.8	363.02	-340.37	1044.1	279.58	-346.26	1006.8	318.87	-283.19	553.21	165.69	-256.54	566.58	301.6	-24.401	570.15	463.73	-17.808	567.49	326.14	-408.91	128.01	211.74	-423.1	127.63	292.9	49.25	107.48	423.78	81.943	149.7	330.92	-239.73	787.62	134.1	-176.13	774.79	157.24	-187.87	703.58	166.39	-248.93	712.36	146.98	-175.9	799.41	470.24	-122.9	825.12	492.18	-100.04	753.55	486.67	-146.49	732.9	463.04	-289.77	498.93	180.64	-232.69	517.11	192.62	-242.8	452.13	209.09	-297.05	437.61	187.91	-42.658	402.02	465.39	13.88	415.38	467.4	29.311	341.88	458.03	-24.68	326.53	453.35	-475.77	62.979	211.59	-492.81	91.352	242.67	-491.43	63.255	279.7	0.046132	39.717	375.31	-2.5072	68.912	341.13	32.923	56.474	318.94	-280.63	37.695	333.37	-278.12	39.03	216.11	-216.43	57.571	299.36	227.49	130.1	366.27	178.81	94.719	470.41	258.12	154.51	431.16
